#!OML:ASF H:\LiuWeirdWalks\Patient Classification 1\Patient 1\Session 1\male.ASF
:FULLY-SPECIFIED
:DEGREES
668
root 3.52134 18.0054 3.31428 -2.69599 8.81234 -0.542359
lowerback 7.81266 0.764647 -5.20301
upperback 0.909787 0.700508 3.31079
thorax -3.54528 0.446364 6.33348
lowerneck -15.1281 -0.859271 5.2747
upperneck 28.0185 -1.50504 -3.97536
head 11.5531 -0.602482 -2.58767
rclavicle 2.5022e-014 1.19271e-014
rhumerus -34.1789 -3.02604 -51.0396
rradius 50.5563
rwrist -3.96597
rhand 4.16828 0.77078
rfingers 7.12502
rthumb 29.5763 -26.8924
lclavicle 2.5022e-014 1.19271e-014
lhumerus -39.7727 -0.467175 79.4104
lradius 59.7065
lwrist -8.41906
lhand -2.84569 -5.1725
lfingers 7.12502
lthumb 22.8621 23.4924
rfemur -19.5231 -25.511 -4.58123
rtibia 52.5179
rfoot 26.6838 5.16693
rtoes -7.52652
lfemur -4.00053 -3.86952 -22.5325
ltibia 26.1693
lfoot -10.9915 19.0843
ltoes -4.66531
669
root 3.50353 18.0024 3.31777 -2.56114 8.41967 -0.488018
lowerback 7.77344 0.853242 -5.1801
upperback 0.862971 0.820117 3.26041
thorax -3.589 0.507916 6.25335
lowerneck -15.1497 -0.758368 5.4235
upperneck 27.961 -1.3597 -4.12501
head 11.5405 -0.541366 -2.6477
rclavicle -1.25483e-014 -1.11319e-014
rhumerus -34.21 -3.07894 -51.2448
rradius 50.5355
rwrist -4.21443
rhand 3.7099 0.924418
rfingers 7.12502
rthumb 29.1387 -26.8154
lclavicle -1.25483e-014 -1.11319e-014
lhumerus -40.009 0.0803119 78.9464
lradius 59.4991
lwrist -8.5301
lhand -3.16889 -5.10143
lfingers 7.12502
lthumb 22.5519 23.6014
rfemur -19.6011 -25.8747 -4.19407
rtibia 52.9181
rfoot 24.9696 4.9265
rtoes -7.6346
lfemur -4.16682 -3.59391 -22.4815
ltibia 26.2876
lfoot -11.0519 19.1366
ltoes -4.80045
670
root 3.48371 17.9991 3.32067 -2.42194 8.04183 -0.406625
lowerback 7.74475 0.939335 -5.19532
upperback 0.822747 0.93233 3.2014
thorax -3.63076 0.565978 6.18677
lowerneck -15.2032 -0.665823 5.53463
upperneck 27.8896 -1.22629 -4.24692
head 11.5294 -0.486549 -2.69269
rclavicle 1.49834e-014 -1.59028e-015
rhumerus -34.2338 -3.10234 -51.4763
rradius 50.5248
rwrist -4.43996
rhand 3.31696 1.05114
rfingers 7.12502
rthumb 28.7634 -26.7531
lclavicle 1.49834e-014 -1.59028e-015
lhumerus -40.1994 0.613412 78.4734
lradius 59.2915
lwrist -8.6117
lhand -3.46576 -5.00215
lfingers 7.12502
lthumb 22.2669 23.735
rfemur -19.6739 -26.1829 -3.7929
rtibia 53.3123
rfoot 23.1343 4.61097
rtoes -7.49499
lfemur -4.3371 -3.31574 -22.4535
ltibia 26.4034
lfoot -11.1077 19.1722
ltoes -4.94157
671
root 3.46223 17.9957 3.32305 -2.27915 7.67903 -0.300741
lowerback 7.72025 1.01889 -5.2407
upperback 0.787646 1.03265 3.13228
thorax -3.66793 0.618165 6.12808
lowerneck -15.2865 -0.573311 5.61457
upperneck 27.8274 -1.09421 -4.34129
head 11.5288 -0.432191 -2.72293
rclavicle 2.5842e-015 -1.03368e-014
rhumerus -34.2534 -3.09829 -51.7331
rradius 50.5204
rwrist -4.62449
rhand 3.00187 1.21095
rfingers 7.12502
rthumb 28.4623 -26.644
lclavicle 2.5842e-015 -1.03368e-014
lhumerus -40.3339 1.14666 77.9874
lradius 59.064
lwrist -8.62039
lhand -3.73555 -4.88141
lfingers 7.12502
lthumb 22.0079 23.8865
rfemur -19.7376 -26.433 -3.3791
rtibia 53.6891
rfoot 21.2038 4.16495
rtoes -7.22972
lfemur -4.50922 -3.03523 -22.4473
ltibia 26.5144
lfoot -11.1597 19.1919
ltoes -5.09684
672
root 3.43909 17.9923 3.32508 -2.13241 7.33276 -0.189059
lowerback 7.69647 1.09577 -5.29434
upperback 0.754554 1.12838 3.05629
thorax -3.70264 0.66798 6.06732
lowerneck -15.3818 -0.49389 5.64952
upperneck 27.7879 -0.981252 -4.39329
head 11.5391 -0.385549 -2.73304
rclavicle -8.84592e-015 9.54166e-015
rhumerus -34.2836 -3.07559 -52.007
rradius 50.5327
rwrist -4.76792
rhand 2.77545 1.38017
rfingers 7.12502
rthumb 28.246 -26.5108
lclavicle -8.84592e-015 9.54166e-015
lhumerus -40.4328 1.63138 77.5034
lradius 58.8506
lwrist -8.57009
lhand -3.99709 -4.72826
lfingers 7.12502
lthumb 21.7568 24.069
rfemur -19.7913 -26.6253 -2.93081
rtibia 54.0377
rfoot 19.207 3.57966
rtoes -6.95938
lfemur -4.68524 -2.74988 -22.4411
ltibia 26.619
lfoot -11.2124 19.1904
ltoes -5.26481
673
root 3.4139 17.9895 3.32695 -1.97661 6.99658 -0.0759944
lowerback 7.67182 1.16857 -5.36131
upperback 0.712469 1.21736 2.97643
thorax -3.7454 0.715102 6.01084
lowerneck -15.4187 -0.410474 5.70267
upperneck 27.6951 -0.862016 -4.45548
head 11.5175 -0.335962 -2.74683
rclavicle 1.83379e-014 8.74653e-015
rhumerus -34.3299 -3.02734 -52.299
rradius 50.5569
rwrist -4.86112
rhand 2.65866 1.55698
rfingers 7.12502
rthumb 28.1343 -26.3524
lclavicle 1.83379e-014 8.74653e-015
lhumerus -40.5046 2.08349 77.0171
lradius 58.6375
lwrist -8.48064
lhand -4.27125 -4.56283
lfingers 7.12502
lthumb 21.4935 24.2647
rfemur -19.8438 -26.7415 -2.43556
rtibia 54.3498
rfoot 17.192 2.80781
rtoes -6.79823
lfemur -4.87312 -2.45194 -22.4269
ltibia 26.7206
lfoot -11.2694 19.1679
ltoes -5.45094
